# Alias Wavefront OBJ File Exported from SketchUp
# with OBJexporter (c) 2013 TIG
# Units = meters

mtllib lahja1.mtl

g lahja1-SKP-Default_Material
usemtl Default_Material
v 0.602296093727 0 0.0587568178908
v 0.602296093727 3.678 1.81955109113
v 0.602296093727 0 1.81955109113
v 0.602296093727 3.678 0.0587568178908
v 0.602296093727 0 -0.297745779466
v 0.602296093727 3.678 -0.297745779466
v 0.602296093727 0 -2.06444890887
v 0.602296093727 3.678 -2.06444890887
v 0.177766914378 0 -0.297745779466
v 0.177766914378 0 0.0587568178908
vt -2.31326054688 0
vt -71.6358697293 144.803149606
vt -71.6358697293 0
vt -2.31326054688 144.803149606
vt 11.7222747821 0
vt 11.7222747821 144.803149606
vt 81.2775160974 0
vt 81.2775160974 144.803149606
vt -6.99869741645 11.7222747821
vt -23.7124446349 -2.31326054688
vt -6.99869741645 -2.31326054688
vt -23.7124446349 11.7222747821
vn 1 0 0
vn 0 -1 0
f 1/1/1 2/2/1 3/3/1
f 2/2/1 1/1/1 4/4/1
f 4/4/1 1/1/1 5/5/1
f 4/4/1 5/5/1 6/6/1
f 6/6/1 5/5/1 7/7/1
f 6/6/1 7/7/1 8/8/1
f 9/9/2 1/10/2 10/11/2
f 1/10/2 9/9/2 5/12/2

g lahja1-SKP-Color_F16
usemtl Color_F16
v 2.57785951639 0 -2.06444890887
v 2.57785951639 0 -0.297745779466
v 2.57785951639 3.678 1.81955109113
v 2.57785951639 3.678 0.0587568178908
v 2.57785951639 0 0.0587568178908
v 2.57785951639 0 1.81955109113
v 2.57785951639 0 0.0534551395636
v 2.57785951639 3.678 0.0534551395636
v 0.166096241458 3.678 1.81955109113
v -1.97114048361 0 1.81955109113
v 0.166096241458 0 1.81955109113
v -1.97114048361 3.678 1.81955109113
v 0.156456350463 3.678 1.81955109113
v -1.97114048361 3.678 0.0587568178908
v -1.97114048361 0 0.0587568178908
v -1.97114048361 3.678 -2.06444890887
v 0.177766914378 0 -2.06444890887
v -1.97114048361 0 -2.06444890887
v 0.177766914378 3.678 -2.06444890887
v 0.156456350463 3.678 -2.06444890887
v 2.57785951639 3.678 -2.06444890887
v 0.156456350463 3.678 -0.297745779466
v -1.97114048361 3.678 -0.297745779466
v 0.177766914378 0 1.81955109113
v -1.97114048361 0 -0.284138224151
v -1.97114048361 3.678 -0.284138224151
v -1.97114048361 0 -0.297745779466
v 0.156456350463 3.678 0.0587568178908
v 2.57785951639 3.678 -0.297745779466
vt -101.490532141 81.2775160974
vt -23.7124446349 81.2775160974
vt -101.490532141 11.7222747821
vt 101.490532141 -71.6358697293
vt 23.7124446349 -2.31326054688
vt 23.7124446349 -71.6358697293
vt 101.490532141 -2.31326054688
vt -2.10453305369 0
vt -2.10453305369 144.803149606
vt 6.53922210465 144.803149606
vt -77.6039560478 0
vt 6.53922210465 0
vt -77.6039560478 144.803149606
vt 6.15969883714 144.803149606
vt 2.31326054688 144.803149606
vt 71.6358697293 0
vt 71.6358697293 144.803149606
vt 2.31326054688 0
vt 77.6039560478 144.803149606
vt -6.99869741645 0
vt 77.6039560478 0
vt -6.99869741645 144.803149606
vt -6.15969883714 144.803149606
vt -23.7124446349 144.803149606
vt -101.490532141 0
vt -23.7124446349 0
vt -101.490532141 144.803149606
vt 6.15969883714 11.7222747821
vt -77.6039560478 81.2775160974
vt -77.6039560478 11.7222747821
vt 6.15969883714 81.2775160974
vt 101.490532141 144.803149606
vt 23.7124446349 0
vt 101.490532141 0
vt 23.7124446349 144.803149606
vt 77.6039560478 -71.6358697293
vt 77.6039560478 -2.31326054688
vt -6.53922210465 -71.6358697293
vt -6.99869741645 -71.6358697293
vt -11.7222747821 144.803149606
vt -11.1865442579 0
vt -11.1865442579 144.803149606
vt -11.7222747821 0
vt -81.2775160974 144.803149606
vt -81.2775160974 0
vt 6.15969883714 -71.6358697293
vt -77.6039560478 -2.31326054688
vt -77.6039560478 -71.6358697293
vt 6.15969883714 -2.31326054688
vt 101.490532141 11.7222747821
vt 23.7124446349 81.2775160974
vt 23.7124446349 11.7222747821
vt 101.490532141 81.2775160974
vt -101.490532141 -2.31326054688
vt -23.7124446349 -71.6358697293
vt -101.490532141 -71.6358697293
vt -6.99869741645 81.2775160974
vt 77.6039560478 11.7222747821
vt 77.6039560478 81.2775160974
vn 0 1 0
vn 0 0 1
vn -1 0 0
vn 0 0 -1
f 11/13/2 5/12/2 7/14/2
f 5/12/2 11/13/2 12/15/2
f 13/16/3 4/17/3 2/18/3
f 4/17/3 13/16/3 14/19/3
f 15/1/1 13/2/1 16/3/1
f 13/2/1 15/1/1 14/4/1
f 14/4/1 15/1/1 17/20/1
f 14/4/1 17/20/1 18/21/1
f 19/22/4 20/23/4 21/24/4
f 20/23/4 19/22/4 22/25/4
f 22/25/4 19/22/4 23/26/4
f 24/27/5 20/28/5 22/29/5
f 20/28/5 24/27/5 25/30/5
f 26/31/6 27/32/6 28/33/6
f 27/32/6 26/31/6 29/34/6
f 29/34/6 26/31/6 30/35/6
f 8/36/6 11/37/6 7/38/6
f 11/37/6 8/36/6 31/39/6
f 32/40/3 26/41/3 33/42/3
f 26/41/3 32/40/3 30/43/3
f 13/44/4 3/45/4 16/46/4
f 3/45/4 13/44/4 2/47/4
f 10/11/2 20/48/2 25/49/2
f 20/48/2 10/11/2 21/50/2
f 21/50/2 10/11/2 34/51/2
f 33/52/5 35/53/5 36/54/5
f 35/53/5 33/52/5 37/55/5
f 37/55/5 33/52/5 26/56/5
f 37/55/5 26/56/5 28/57/5
f 23/58/3 24/59/3 22/60/3
f 24/59/3 23/58/3 38/61/3
f 39/62/3 8/63/3 6/64/3
f 8/63/3 39/62/3 31/65/3
f 11/7/1 39/6/1 12/5/1
f 39/6/1 11/7/1 31/8/1
f 15/66/2 3/67/2 1/10/2
f 3/67/2 15/66/2 16/68/2
f 27/69/2 37/70/2 28/71/2
f 37/70/2 27/69/2 9/9/2

g lahja1-SKP-Color_A01
usemtl Color_A01
vt 6.99869741645 81.2775160974
vt 6.99869741645 0
vt 6.53922210465 -71.6358697293
vt 77.6039560478 11.1865442579
vt -101.490532141 -2.10453305369
vt 101.490532141 -2.10453305369
vt -77.6039560478 11.1865442579
f 29/34/6 7/38/6 27/32/6
f 7/38/6 29/34/6 8/36/6
f 32/40/3 29/72/3 30/43/3
f 29/72/3 32/40/3 6/64/3
f 29/72/3 6/64/3 8/63/3
f 2/47/4 34/73/4 3/45/4
f 34/73/4 2/47/4 21/24/4
f 21/24/4 2/47/4 19/22/4
f 7/14/2 9/9/2 27/69/2
f 9/9/2 7/14/2 5/12/2
f 36/54/5 25/30/5 24/27/5
f 25/30/5 36/54/5 35/53/5
f 19/74/3 38/61/3 23/58/3
f 38/61/3 19/74/3 4/17/3
f 4/17/3 19/74/3 2/18/3
f 12/5/1 18/21/1 17/20/1
f 18/21/1 12/5/1 39/6/1
f 9/9/2 35/75/2 37/70/2
f 35/75/2 9/9/2 25/49/2
f 25/49/2 9/9/2 10/11/2
f 12/15/2 1/10/2 5/12/2
f 1/10/2 12/15/2 15/66/2
f 15/66/2 12/15/2 17/76/2
f 1/10/2 34/51/2 10/11/2
f 34/51/2 1/10/2 3/67/2
f 14/19/3 6/64/3 4/17/3
f 6/64/3 14/19/3 39/62/3
f 39/62/3 14/19/3 18/77/3
f 38/61/3 36/78/3 24/59/3
f 36/78/3 38/61/3 33/42/3
f 33/42/3 38/61/3 32/40/3

g lahja1-SKP-Color_009
usemtl Color_009
v 0.602296093727 4.047 0.0587568178908
v 0.156456350463 4.047 -0.297745779466
v 0.156456350463 4.047 0.0587568178908
v 0.602296093727 4.047 -0.297745779466
vt -11.7222747821 159.330708661
vt 2.31326054688 159.330708661
vt 23.7124446349 159.330708661
vt 6.15969883714 159.330708661
vt -2.31326054688 159.330708661
vt 11.7222747821 159.330708661
vt -6.15969883714 159.330708661
vt -23.7124446349 159.330708661
f 40/17/3 41/40/3 42/61/3
f 41/40/3 40/17/3 43/64/3
f 41/79/5 38/27/5 42/80/5
f 38/27/5 41/79/5 32/52/5
f 40/81/4 38/26/4 4/47/4
f 38/26/4 40/81/4 42/82/4
f 6/6/1 40/83/1 4/4/1
f 40/83/1 6/6/1 43/84/1
f 41/85/6 6/36/6 32/35/6
f 6/36/6 41/85/6 43/86/6

#EOF
